<?xml version="1.0" standalone="no"?><!DOCTYPE svg PUBLIC "-//W3C//DTD SVG 1.1//EN" "http://www.w3.org/Graphics/SVG/1.1/DTD/svg11.dtd"><svg t="1745389280708" class="icon" viewBox="0 0 1024 1024" version="1.1" xmlns="http://www.w3.org/2000/svg" p-id="4909" xmlns:xlink="http://www.w3.org/1999/xlink" width="200" height="200"><path d="M611.711079 257.355511C607.092029 265.989525 604.086331 338.13364 604.086331 440.386302c0 159.545094 0.81036 169.512518 14.763281 182.146763 12.155396 10.998791 17.989986 11.890187 32.996374 5.053698l18.233093-8.309871 1.996432-148.796777c1.488115-111.041381 4.331741-149.577669 11.205065-151.868777 7.26377-2.416345 9.208633 60.644374 9.208633 299.066935 0 264.840288 1.42918 303.560748 11.57341 313.712346 13.201496 13.194129 24.126619 14.387568 39.994935 4.375942 9.179165-5.797755 11.676547-38.492086 14.733813-193.270791 4.90636-248.257381 17.724777-247.40282 20.38423 1.362877 1.893295 176.908892 2.54895 184.297899 17.069122 192.069986 11.691281 6.254504 19.153957 5.42941 33.025842-3.661352l17.923684-11.742849V618.216058c0-199.665266 2.504748-300.761324 7.366906-297.755626 4.50118 2.784691 7.366906 60.062388 7.366907 147.249726 0 119.896403 1.849094 144.538705 11.57341 154.270389 15.522072 15.514705 29.622331 14.579108 47.361841-3.160403 13.871885-13.871885 14.733813-24.553899 14.733813-183.030791 0-153.688403-1.171338-169.357813-13.474072-180.489209C910.54964 244.824403 888.264748 243.107914 763.992403 243.107914c-135.47741 0-145.135424 0.906129-152.281324 14.247597M176.805755 368.087482c0 43.766791-2.165871 52.467108-14.733813 59.193094-8.103597 4.339108-14.733813 11.396604-14.733813 15.684143 0 4.28754 6.630216 9.532777 14.733813 11.64708 13.422504 3.514014 14.733813 10.04846 14.733813 73.462791 0 38.285813-3.219338 75.636029-7.160633 82.995568-10.748317 20.07482-29.968576 24.502331-45.475913 10.468374C111.991712 610.51764 110.503597 596.874129 110.503597 496.124317 110.503597 423.847597 107.777842 383.079137 102.952518 383.079137c-4.92846 0-6.843856 41.48305-5.52518 119.439654l2.025899 119.439655 19.979051 11.205065c16.081957 9.017094 24.332892 9.554878 42.359712 2.755223L184.172662 627.468892v149.238791c0 135.226935 1.267108 150.380662 13.474072 161.431022 17.820547 16.126158 42.205007 15.448403 59.310964-1.657554 13.562475-13.562475 14.107626-13.562475 25.710503 0 15.190561 17.732144 43.030101 17.746878 59.067857 0.029468 15.323165-16.936518 24.929612-67.215655 12.840518-67.215655-4.582216 0-8.331971 10.939856-8.331972 24.310791 0 28.207885-11.07246 41.991367-33.725698 41.991367-26.41036 0-31.928173-15.544173-34.145611-96.197064-2.784691-101.383367-16.177727-101.383367-18.962417 0-1.163971 42.308144-5.716719 81.264345-10.114763 86.561151-10.814619 13.039424-32.097612 12.148029-46.183137-1.937497-10.018993-10.02636-11.57341-42.116604-11.57341-239.42446V456.748201h33.151079c27.913209 0 33.151079-2.26164 33.15108-14.313899 0-11.566043-5.996662-14.74118-31.309353-16.575539L195.223022 423.597122l-2.165871-53.410072C190.287194 301.88846 176.805755 300.149871 176.805755 368.087482M744.057554 74.302619c-26.83764 10.76305-43.847827 36.215712-44.039367 65.86751-0.206273 33.298417 15.544173 55.480173 46.684086 65.757008 30.550561 10.085295 55.760115 1.657554 77.426187-25.879943 21.636604-27.508029 20.015885-57.262964-4.560115-83.901698-23.14682-25.07695-48.879424-32.524892-75.510791-21.842877M346.244604 334.192345c0 17.297496-2.799424 18.807712-38.609957 20.877813-29.835971 1.716489-39.162475 5.149468-41.055769 15.116892-2.099568 11.028259 3.484547 12.892086 38.609957 12.892087H346.244604v66.913611c0 50.249669 2.291108 66.162187 9.208633 63.871079 6.202935-2.055367 9.908489-24.05295 11.345036-67.326158l2.129036-64.276259 31.022044 2.246907 31.014676 2.254273v31.316719c0 17.231194 2.490014 31.316719 5.52518 31.309353 3.042532 0 5.52518-14.925353 5.525179-33.158446V383.079137h48.422677c42.146072 0 48.105899-1.672288 45.969496-12.892087-1.966964-10.343137-11.543942-13.326734-48.422676-15.087424-41.225209-1.966964-45.969496-3.801324-45.969497-17.798446 0-8.589813-2.482647-13.127827-5.525179-10.085295-3.035165 3.035165-5.52518 9.392806-5.52518 14.114993 0 5.274705-12.803683 8.59718-33.143712 8.59718-27.729036 0-33.143712-2.305842-33.15108-14.100259 0-7.757353-4.147568-15.492604-9.216-17.186993-5.753554-1.930129-9.208633 3.90446-9.208633 15.551539M445.697842 920.863309c-11.138763 18.019453 9.193899 22.100719 110.039482 22.10072 79.25318 0 107.52-2.460547 113.6861-9.886389 4.508547-5.436777 6.026129-12.066993 3.35931-14.733813-8.007827-8.007827-222.045928-5.628317-227.084892 2.519482M361.206791 77.072576c-14.343367 17.290129-0.132604 19.345496 117.981008 17.069122C568.01059 92.425209 585.669065 90.251971 585.669065 81.035971c0-16.627108-210.855597-20.354763-224.462274-3.963395M436.165065 539.021813c-1.73859 64.806676-5.237871 77.330417-24.487597 87.629352C387.543482 639.565353 368.345324 622.923511 368.345324 589.094676 368.345324 568.040058 365.25859 559.884892 357.294964 559.884892c-9.414906 0-11.05036 19.64754-11.05036 132.604317 0 89.846791 2.556317 132.604317 7.934159 132.604316 5.399942 0 7.168-31.802935 5.525179-99.460604-2.224806-91.865324 0.390446-111.394993 12.324835-92.078964 7.632115 12.346935 44.827626 8.221468 58.095424-6.438676 10.225266-11.293468 12.044892-25.673669 10.018993-79.194245l-2.467913-65.388662-1.510216 56.489439" p-id="4910" fill="#0a66c2"></path><path d="M121.406619 237.553266c-8.022561 4.390676-17.024921 11.580777-20.001151 15.97882C93.220835 265.628547 94.701583 338.877698 103.136691 338.877698c4.051799 0 7.366906-17.827914 7.366906-39.619223 0-24.679137 3.830791-42.79436 10.158964-48.046964 7.050129-5.849324 53.837353-7.816288 152.86331-6.423943 140.022791 1.966964 142.844317 2.313209 149.975482 18.579338 4.00023 9.12023 9.805353 16.57554 12.892086 16.57554 9.076029 0 6.460777-18.129957-4.832691-33.585727-9.665381-13.223597-21.19459-14.394935-153.010647-15.544172-90.797122-0.788259-147.846446 1.657554-157.143482 6.740719M257.841727 633.553957c0 67.119885 1.900662 81.035971 11.050359 81.035971S279.942446 700.673842 279.942446 633.553957s-1.900662-81.035971-11.05036-81.035971S257.841727 566.434072 257.841727 633.553957M512.707223 175.663885c-9.112863 14.733813 17.525871 23.927712 63.112288 21.769209 35.604259-1.687022 46.684086-4.832691 46.684086-13.260432 0-8.59718-11.735482-11.529209-52.783885-13.201497-29.032978-1.186072-54.684547 0.92823-57.012489 4.69272M497.406158 736.462273c-2.615252 4.235971-0.110504 9.481209 5.569382 11.661813 17.901583 6.873324 127.012835 0.110504 125.097438-7.749985-2.467914-10.114763-124.574388-13.768748-130.66682-3.911828M226.532374 71.886273c-28.450993 17.643741-25.239022 25.209554 5.289439 12.457439C245.870504 78.472288 266.018993 73.669065 276.590504 73.669065 299.833094 73.669065 338.877698 110.253122 338.877698 132.037065c0 8.413007 3.38141 15.301065 7.506878 15.301064 7.897324 0 2.873094-30.661065-8.744518-53.336402-8.825554-17.223827-44.849727-35.110676-70.221353-34.867569-11.345036 0.103137-29.740201 5.841957-40.886331 12.752115M191.539568 147.706475C191.539568 186.935252 227.821583 221.007194 269.606676 221.007194c24.251856 0 70.530763-23.979281 53.380605-27.662734-6.711252-1.443914-14.365468 0.876662-17.010187 5.156835-2.644719 4.272806-17.680576 7.772086-33.423655 7.772086-35.309583 0-67.127252-24.78964-68.79954-53.608978C202.405755 129.502849 191.539568 125.090072 191.539568 147.706475" p-id="4911" fill="#0a66c2"></path></svg>